<svg width="13" height="13" viewBox="0 0 13 13" xmlns="http://www.w3.org/2000/svg"><title>next2</title><g fill="none" fill-rule="evenodd"><path d="M-2-2h16v16H-2z"/><path d="M5.26 6.156l.744.71 5.578 5.3a.546.546 0 0 0 .744 0 .484.484 0 0 0 .154-.352.484.484 0 0 0-.154-.353L6.748 6.156 12.324.851A.484.484 0 0 0 12.478.5a.484.484 0 0 0-.154-.353.546.546 0 0 0-.743 0L6.004 5.451l-.744.705zm-5.26 0l.744.71 5.578 5.3a.546.546 0 0 0 .744 0 .484.484 0 0 0 .154-.352.484.484 0 0 0-.154-.353L1.488 6.156 7.066.851A.484.484 0 0 0 7.22.5a.484.484 0 0 0-.154-.353.546.546 0 0 0-.744 0L.744 5.451 0 6.156z" fill="#BCC1CC"/></g></svg>